<svg width="47" height="44" viewBox="0 0 47 44" fill="none" xmlns="http://www.w3.org/2000/svg">
<path d="M23.2311 0C10.2855 0 0.216797 9.84375 0.216797 22.5C0.216797 37.2656 13.8815 43.5938 16.0391 43.5938C17.4775 43.5938 17.4775 42.8906 17.4775 42.1875V38.6719C12.4431 40.0781 10.2855 37.2656 9.56634 35.1562C9.56634 35.1562 9.56634 34.4531 8.12795 33.0469C7.40876 32.3438 4.53197 30.9375 7.40876 30.9375C9.56634 30.9375 11.0047 33.75 11.0047 33.75C13.1623 36.5625 16.0391 35.8594 17.4775 35.1562C17.4775 33.75 18.9159 32.3438 18.9159 32.3438C13.1623 31.6406 8.84715 29.5312 8.84715 21.7969C8.84715 18.9844 9.56634 16.875 11.0047 15.4688C11.0047 15.4688 9.56634 12.6562 11.0047 9.14062C11.0047 9.14062 14.6007 9.14062 17.4775 11.9531C19.6351 10.5469 26.827 10.5469 28.9846 11.9531C31.8614 9.14062 35.4574 9.14062 35.4574 9.14062C36.8958 14.0625 35.4574 15.4688 35.4574 15.4688C36.8958 16.875 37.615 18.9844 37.615 21.7969C37.615 29.5312 32.5806 31.6406 27.5462 32.3438C28.2654 33.0469 28.9846 34.4531 28.9846 36.5625V42.1875C28.9846 42.8906 28.9846 43.5938 30.423 43.5938C32.5806 43.5938 46.2453 37.2656 46.2453 22.5C46.2453 9.84375 36.1766 0 23.2311 0Z" fill="white"/>
</svg>
