<svg width="75" height="57" viewBox="0 0 75 57" fill="none" xmlns="http://www.w3.org/2000/svg">
<path d="M74.0753 32.6547C74.0786 38.1111 74.4709 43.4842 70.0694 47.6292C69.323 48.3317 68.4721 48.8978 67.6328 49.4764C65.031 51.2722 60.1211 55.2665 57.2913 56.0919C52.9802 57.3512 50.3229 55.4164 47.0867 53.1994C46.2167 52.6022 45.3151 52.0573 44.4559 51.4432L41.1898 49.1454C39.1318 47.711 38.0417 47.0341 36.8812 47.1318C35.9353 47.2115 34.9425 47.8057 33.3406 48.9239C31.1577 50.4476 29.0478 51.9267 26.8375 53.4058C25.6424 54.2052 24.5592 55.0719 23.2289 55.6396C17.6489 58.0174 14.0784 54.8967 9.84531 51.9124L7.04452 49.9557C-0.0731691 45.0417 0.0164047 41.3465 0.0164047 33.5349V2.64822C0.0155754 1.76885 -0.0200877 0.877687 0.0164047 0C1.84186 0.918118 5.93647 4.67903 7.64995 6.07558L18.5023 15.0218C20.1047 16.3492 21.8065 17.5866 23.3442 18.9882C21.0327 20.5675 18.6416 22.0306 16.3269 23.6108C17.3055 24.1237 18.0445 24.9652 19.1127 25.3274C22.0379 26.3188 23.661 24.6072 25.8705 23.0523L33.3406 17.8073L36.8812 15.48L36.9285 15.4572L40.3721 17.8073C41.4718 18.5729 42.584 19.3167 43.663 20.1118L47.9451 23.2419C50.0028 24.7311 52.2105 26.6574 54.8803 25.2727C55.7055 24.8439 56.4097 24.1094 57.1213 23.5148L68.098 14.5256C69.9981 12.9623 72.0483 11.1606 74.0753 9.77753V32.6547ZM32.4291 28.9106C31.4638 29.202 27.3982 32.0667 26.3971 32.7692C24.0102 34.4437 22.5986 35.8546 19.4644 35.7409C16.9423 35.6491 15.4461 34.3966 13.5294 32.925C12.0382 31.7795 10.5113 30.5506 9.01511 29.4345C8.9836 29.961 9.01262 30.4891 9.01428 31.0155V36.7062C9.01345 38.0488 8.98525 39.3333 9.53098 40.5884C10.4076 42.2646 12.0398 43.0943 13.5302 44.1328C15.9678 45.8309 18.5156 48.4648 21.5917 46.776C23.7373 45.5976 25.664 44.0604 27.6744 42.6706C32.0277 39.6601 32.4316 40.0206 32.4308 33.9535L32.4267 30.4925C32.4267 30.0747 32.5121 29.288 32.464 28.935L32.4291 28.9106ZM41.617 28.9106L41.6161 33.7522C41.6161 39.634 41.3341 39.3426 46.1752 42.7093L49.6793 45.1107C53.1892 47.5391 54.3122 48.5432 57.8976 46.0314L61.8313 43.3082C62.9601 42.5316 64.0349 41.8367 64.7026 40.5884C65.182 39.1388 65.1869 38.3638 65.1861 36.8376L65.1878 30.9768C65.1878 30.4672 65.2226 29.9416 65.1853 29.4345C64.798 29.8152 64.3269 30.1185 63.8906 30.4386C61.7533 32.0086 59.0056 34.5945 56.6892 35.4073C52.7546 36.7879 50.4365 34.8346 47.4491 32.7675C46.2108 31.9109 42.8718 29.4379 41.617 28.9106Z" fill="#CEA65A"/>
</svg>
