<svg width="132" height="116" viewBox="0 0 132 116" fill="none" xmlns="http://www.w3.org/2000/svg">
<path fill-rule="evenodd" clip-rule="evenodd" d="M123.2 71.2001C118.342 71.2001 114.4 75.1425 114.4 80.0001V97.6001H17.6V80.0001C17.6 75.1425 13.6576 71.2001 8.8 71.2001C3.9424 71.2001 0 75.1425 0 80.0001V110.8C0 112.908 2.2924 115.2 4.4 115.2H127.6C130.258 115.2 132 113.185 132 110.8V80.0001C132 75.1425 128.058 71.2001 123.2 71.2001ZM48.4 36.0001H57.2V75.6001C57.2 80.4577 61.1424 84.4001 66 84.4001C70.8576 84.4001 74.8 80.4577 74.8 75.6001V36.0001H83.6C86.6976 36.0001 89.4344 36.4181 91.1636 34.6801C92.884 32.9509 92.884 30.1392 91.1636 28.4056L69.4144 2.04538C68.4904 1.12138 67.2716 0.725225 66.0704 0.791225C64.8648 0.725225 63.6459 1.12138 62.7263 2.04538L40.9771 28.4056C39.2523 30.1392 39.2523 32.9509 40.9771 34.6801C42.702 36.4181 46.6752 36.0001 48.4 36.0001Z" fill="#303030"/>
</svg>
