<svg width="39" height="38" viewBox="0 0 39 38" fill="none" xmlns="http://www.w3.org/2000/svg">
<path d="M25.4792 0.25H13.7124C2.96432 0.25 0.407227 2.74996 0.407227 13.2382V24.7422C0.407227 35.2499 2.94444 37.75 13.6923 37.75H25.4592C36.2072 37.75 38.7643 35.2695 38.7643 24.7617V13.2578C38.7643 2.74996 36.2271 0.25 25.4792 0.25ZM31.3726 27.0078H28.5757C27.517 27.0078 27.1973 26.1679 25.2994 24.3125C23.6412 22.75 22.942 22.5546 22.5225 22.5546C21.9432 22.5546 21.7833 22.7109 21.7833 23.4921V25.9531C21.7833 26.6172 21.5636 27.0078 19.7856 27.0078C18.0603 26.8944 16.3872 26.382 14.9041 25.5127C13.421 24.6434 12.1703 23.4421 11.2551 22.0077C9.08237 19.3638 7.57062 16.2607 6.84008 12.9453C6.84008 12.5351 6.99986 12.164 7.79901 12.164H10.5958C11.315 12.164 11.5748 12.4765 11.8544 13.1992C13.2129 17.1054 15.5304 20.5039 16.4693 20.5039C16.8289 20.5039 16.9886 20.3477 16.9886 19.4688V15.4452C16.8688 13.6094 15.8699 13.4531 15.8699 12.7891C15.8831 12.6139 15.9656 12.4506 16.0998 12.3339C16.2341 12.2172 16.4096 12.1562 16.5891 12.164H20.9843C21.5836 12.164 21.7833 12.457 21.7833 13.1601V18.5898C21.7833 19.1758 22.043 19.371 22.2228 19.371C22.5824 19.371 22.8621 19.1758 23.5213 18.5312C24.938 16.8422 26.0956 14.9605 26.9575 12.9453C27.0455 12.7028 27.2123 12.4951 27.4324 12.3541C27.6524 12.213 27.9137 12.1462 28.1762 12.164H30.9731C31.8121 12.164 31.9919 12.5742 31.8121 13.1601C30.7944 15.3882 29.5353 17.5031 28.0564 19.4688C27.7567 19.9179 27.6368 20.1523 28.0564 20.6796C28.336 21.0898 29.315 21.8906 29.9742 22.6523C30.9331 23.5874 31.7294 24.6694 32.3315 25.8555C32.5712 26.6172 32.1717 27.0078 31.3726 27.0078Z" fill="white"/>
</svg>
